<?xml version="1.0" encoding="utf-8"?>
<!DOCTYPE svg PUBLIC "-//W3C//DTD SVG 1.1//EN" "http://www.w3.org/Graphics/SVG/1.1/DTD/svg11.dtd">
<svg xmlns="http://www.w3.org/2000/svg" xmlns:xlink="http://www.w3.org/1999/xlink" version="1.1" baseProfile="full" width="519.178" height="191.54" viewBox="0 0 519.18 191.54" enable-background="new 0 0 519.18 191.54" xml:space="preserve">
	<line fill="none" stroke-linejoin="round" stroke="#000000" stroke-opacity="1" x1="0.5" y1="113.5" x2="116" y2="113.5"/>
	<path fill="none" stroke-width="3" stroke-linejoin="miter" stroke="#000000" stroke-opacity="1" d="M 52,65L 52,33L 129.417,33"/>
	<ellipse fill="none" stroke-width="2" stroke-linejoin="round" stroke="#000000" stroke-opacity="1" cx="147" cy="33.5001" rx="16" ry="16"/>
	<g>
		<path fill="#000000" fill-opacity="1" stroke-linejoin="round" d="M 158.09,35.75L 148.49,35.75L 148.49,45.3499L 145.13,45.3499L 145.13,35.75L 135.53,35.75L 135.53,32.39L 145.13,32.39L 145.13,22.7899L 148.49,22.7899L 148.49,32.39L 158.09,32.39L 158.09,35.75 Z "/>
	</g>
	<path fill="#000000" fill-opacity="1" stroke-width="3" stroke-linejoin="miter" stroke="#000000" stroke-opacity="1" d="M 122.5,38.9999L 129.292,32.9999L 122.479,26.9998L 122.5,38.9999 Z "/>
	<g>
		<path fill="#000000" fill-opacity="1" stroke-linejoin="round" d="M 3.0125,168.42L 7.0925,168.42L 17.18,180.821L 17.18,171.3C 17.18,170.29 17.075,169.66 16.865,169.41C 16.5875,169.07 16.1487,168.9 15.5487,168.9L 15.02,168.9L 15.02,168.42L 20.3,168.42L 20.3,168.9L 19.76,168.9C 19.115,168.9 18.6575,169.11 18.3875,169.53C 18.2225,169.79 18.14,170.38 18.14,171.3L 18.14,184.759L 17.7462,184.759L 7.1,171.754L 7.1,181.62C 7.1,182.63 7.20125,183.26 7.40375,183.51C 7.68875,183.85 8.1275,184.02 8.72,184.02L 9.26,184.02L 9.26,184.5L 3.98,184.5L 3.98,184.02L 4.50875,184.02C 5.16125,184.02 5.6225,183.81 5.8925,183.39C 6.0575,183.13 6.14,182.54 6.14,181.62L 6.14,170.58C 5.68,170.033 5.33062,169.671 5.09187,169.496C 4.85312,169.321 4.50375,169.159 4.04375,169.009C 3.81625,168.936 3.4725,168.9 3.0125,168.9L 3.0125,168.42 Z "/>
		<path fill="#000000" fill-opacity="1" stroke-linejoin="round" d="M 26.6712,173.46C 28.2912,173.46 29.5912,174.071 30.5712,175.294C 31.4037,176.341 31.82,177.543 31.82,178.898C 31.82,179.85 31.5906,180.814 31.1319,181.789C 30.6731,182.764 30.0406,183.499 29.2344,183.996C 28.4281,184.492 27.5312,184.74 26.5437,184.74C 24.9312,184.74 23.6512,184.101 22.7037,182.824C 21.9012,181.746 21.5,180.538 21.5,179.198C 21.5,178.223 21.7431,177.253 22.2294,176.289C 22.7156,175.326 23.3556,174.613 24.1494,174.152C 24.9431,173.691 25.7837,173.46 26.6712,173.46 Z M 26.3037,174.18C 25.8862,174.18 25.4662,174.304 25.0437,174.551C 24.6212,174.799 24.28,175.233 24.02,175.853C 23.76,176.473 23.63,177.27 23.63,178.245C 23.63,179.818 23.9437,181.173 24.5712,182.312C 25.1987,183.451 26.025,184.02 27.05,184.02C 27.815,184.02 28.4462,183.706 28.9437,183.077C 29.4412,182.448 29.69,181.368 29.69,179.835C 29.69,177.92 29.2762,176.413 28.4487,175.313C 27.8887,174.558 27.1737,174.18 26.3037,174.18 Z "/>
		<path fill="#000000" fill-opacity="1" stroke-linejoin="round" d="M 36.0275,167.7C 36.39,167.7 36.6994,167.828 36.9556,168.084C 37.2119,168.341 37.34,168.65 37.34,169.013C 37.34,169.378 37.2119,169.69 36.9556,169.95C 36.6994,170.21 36.39,170.34 36.0275,170.34C 35.6625,170.34 35.35,170.21 35.09,169.95C 34.83,169.69 34.7,169.378 34.7,169.013C 34.7,168.65 34.8281,168.341 35.0844,168.084C 35.3406,167.828 35.655,167.7 36.0275,167.7 Z M 37.1,173.46L 37.1,182.1C 37.1,182.743 37.1506,183.171 37.2519,183.384C 37.3531,183.598 37.5025,183.758 37.7,183.863C 37.8975,183.968 38.2575,184.02 38.78,184.02L 38.78,184.5L 33.5,184.5L 33.5,184.02C 34.035,184.02 34.395,183.971 34.58,183.874C 34.765,183.776 34.9112,183.616 35.0187,183.392C 35.1262,183.168 35.18,182.738 35.18,182.1L 35.18,177.78C 35.18,176.665 35.1475,175.943 35.0825,175.613C 35.03,175.373 34.9494,175.204 34.8406,175.108C 34.7319,175.012 34.5837,174.964 34.3962,174.964C 34.1912,174.964 33.9437,175.023 33.6537,175.14L 33.5,174.66L 36.605,173.46L 37.1,173.46 Z "/>
		<path fill="#000000" fill-opacity="1" stroke-linejoin="round" d="M 47.42,173.46L 47.42,177.06L 46.94,177.06C 46.64,175.945 46.255,175.186 45.785,174.784C 45.315,174.381 44.7162,174.18 43.9887,174.18C 43.4362,174.18 42.99,174.323 42.65,174.608C 42.31,174.893 42.14,175.208 42.14,175.553C 42.14,175.985 42.2612,176.355 42.5037,176.663C 42.7387,176.978 43.2337,177.311 43.9887,177.664L 45.725,178.481C 47.335,179.249 48.14,180.259 48.14,181.511C 48.14,182.479 47.7669,183.259 47.0206,183.851C 46.2744,184.444 45.44,184.74 44.5175,184.74C 43.855,184.74 43.0975,184.62 42.245,184.38C 41.985,184.3 41.7725,184.26 41.6075,184.26C 41.425,184.26 41.2825,184.42 41.18,184.74L 40.7,184.74L 40.7,181.14L 41.18,181.14C 41.405,182.093 41.8331,182.811 42.4644,183.294C 43.0956,183.778 43.8037,184.02 44.5887,184.02C 45.1412,184.02 45.5912,183.856 45.9387,183.529C 46.2862,183.201 46.46,182.808 46.46,182.348C 46.46,181.793 46.2675,181.325 45.8825,180.945C 45.4975,180.565 44.7269,180.104 43.5706,179.561C 42.4144,179.019 41.6475,178.529 41.27,178.091C 40.89,177.661 40.7,177.118 40.7,176.46C 40.7,175.608 41.0081,174.894 41.6244,174.321C 42.2406,173.747 43.0375,173.46 44.015,173.46C 44.445,173.46 44.9662,173.556 45.5787,173.749C 45.9862,173.876 46.2575,173.94 46.3925,173.94C 46.52,173.94 46.6194,173.911 46.6906,173.852C 46.7619,173.793 46.845,173.663 46.94,173.46L 47.42,173.46 Z "/>
		<path fill="#000000" fill-opacity="1" stroke-linejoin="round" d="M 51.26,177.78C 51.2525,179.353 51.6475,180.585 52.445,181.478C 53.2425,182.373 54.1787,182.82 55.2537,182.82C 55.9712,182.82 56.595,182.659 57.125,182.338C 57.655,182.017 58.1,181.378 58.46,180.42L 58.7,180.638C 58.535,181.753 58.0562,182.715 57.2637,183.525C 56.4712,184.335 55.4787,184.74 54.2862,184.74C 52.9912,184.74 51.8831,184.243 50.9619,183.249C 50.0406,182.256 49.58,180.919 49.58,179.239C 49.58,177.421 50.0525,176.004 50.9975,174.986C 51.9425,173.969 53.1287,173.46 54.5562,173.46C 55.7662,173.46 56.7594,173.852 57.5356,174.636C 58.3119,175.419 58.7,176.468 58.7,177.78L 51.26,177.78 Z M 51.26,177.06L 56.3,177.06C 56.26,176.368 56.1762,175.88 56.0487,175.598C 55.8512,175.155 55.5562,174.808 55.1637,174.557C 54.7712,174.306 54.3612,174.18 53.9337,174.18C 53.2762,174.18 52.6881,174.434 52.1694,174.941C 51.6506,175.449 51.3475,176.155 51.26,177.06 Z "/>
		<path fill="#000000" fill-opacity="1" stroke-linejoin="round" d="M 69.26,175.646C 70.295,174.189 71.41,173.46 72.605,173.46C 73.7025,173.46 74.6594,173.927 75.4756,174.861C 76.2919,175.794 76.7,177.07 76.7,178.688C 76.7,180.578 76.07,182.099 74.81,183.251C 73.73,184.244 72.5262,184.74 71.1987,184.74C 70.5762,184.74 69.9444,184.638 69.3031,184.433C 68.6619,184.228 68.0075,183.921 67.34,183.514L 67.34,172.02C 67.34,170.868 67.3131,170.158 67.2594,169.892C 67.2056,169.626 67.1206,169.443 67.0044,169.343C 66.8881,169.243 66.7437,169.193 66.5712,169.193C 66.3687,169.193 66.115,169.255 65.81,169.38L 65.66,168.9L 68.7537,167.7L 69.26,167.7L 69.26,175.646 Z M 69.26,176.396L 69.26,182.835C 69.6625,183.225 70.0794,183.52 70.5106,183.72C 70.9419,183.92 71.3837,184.02 71.8362,184.02C 72.5562,184.02 73.2269,183.629 73.8481,182.846C 74.4694,182.064 74.78,180.924 74.78,179.426C 74.78,178.049 74.4694,176.99 73.8481,176.25C 73.2269,175.51 72.52,175.14 71.7275,175.14C 71.31,175.14 70.8912,175.246 70.4712,175.459C 70.1537,175.614 69.75,175.926 69.26,176.396 Z "/>
		<path fill="#000000" fill-opacity="1" stroke-linejoin="round" d="M 87.74,173.7L 87.74,180.42C 87.74,181.58 87.7675,182.29 87.8225,182.55C 87.8775,182.81 87.965,182.993 88.085,183.099C 88.205,183.206 88.345,183.259 88.505,183.259C 88.73,183.259 88.9837,183.193 89.2662,183.06L 89.42,183.54L 86.3262,184.74L 85.82,184.74L 85.82,182.471C 84.885,183.469 84.1719,184.096 83.6806,184.354C 83.1894,184.611 82.67,184.74 82.1225,184.74C 81.5125,184.74 80.9837,184.568 80.5362,184.224C 80.0887,183.881 79.7775,183.438 79.6025,182.897C 79.4275,182.356 79.34,181.59 79.34,180.6L 79.34,175.86C 79.34,175.343 79.2894,174.985 79.1881,174.788C 79.0869,174.59 78.9369,174.438 78.7381,174.33C 78.5394,174.223 78.18,174.173 77.66,174.18L 77.66,173.7L 81.26,173.7L 81.26,180.866C 81.26,181.866 81.4387,182.522 81.7962,182.833C 82.1537,183.144 82.585,183.3 83.09,183.3C 83.435,183.3 83.8256,183.195 84.2619,182.985C 84.6981,182.775 85.2175,182.374 85.82,181.781L 85.82,175.86C 85.82,175.213 85.7112,174.775 85.4937,174.548C 85.2762,174.32 84.825,174.198 84.14,174.18L 84.14,173.7L 87.74,173.7 Z "/>
		<path fill="#000000" fill-opacity="1" stroke-linejoin="round" d="M 93.26,173.46L 93.26,176.123C 94.1225,174.348 95.0062,173.46 95.9112,173.46C 96.3237,173.46 96.665,173.604 96.935,173.893C 97.205,174.182 97.34,174.516 97.34,174.896C 97.34,175.234 97.2494,175.519 97.0681,175.751C 96.8869,175.984 96.6712,176.1 96.4212,176.1C 96.1787,176.1 95.8887,175.94 95.5512,175.62C 95.2137,175.3 94.9637,175.14 94.8012,175.14C 94.6612,175.14 94.5087,175.224 94.3437,175.391C 93.9937,175.731 93.6325,176.294 93.26,177.079L 93.26,182.1C 93.26,182.665 93.3362,183.093 93.4887,183.383C 93.5912,183.583 93.775,183.739 94.04,183.851C 94.305,183.964 94.685,184.02 95.18,184.02L 95.18,184.5L 89.66,184.5L 89.66,184.02C 90.205,184.02 90.61,183.938 90.875,183.773C 91.0675,183.653 91.2025,183.46 91.28,183.195C 91.32,183.068 91.34,182.703 91.34,182.1L 91.34,177.78C 91.34,176.578 91.3162,175.861 91.2687,175.631C 91.2212,175.401 91.1337,175.233 91.0062,175.125C 90.8787,175.018 90.7212,174.964 90.5337,174.964C 90.3087,174.964 90.0537,175.023 89.7687,175.14L 89.66,174.66L 92.7875,173.46L 93.26,173.46 Z "/>
		<path fill="#000000" fill-opacity="1" stroke-linejoin="round" d="M 105.26,173.46L 105.26,177.06L 104.78,177.06C 104.48,175.945 104.095,175.186 103.625,174.784C 103.155,174.381 102.556,174.18 101.829,174.18C 101.276,174.18 100.83,174.323 100.49,174.608C 100.15,174.893 99.98,175.208 99.98,175.553C 99.98,175.985 100.101,176.355 100.344,176.663C 100.579,176.978 101.074,177.311 101.829,177.664L 103.565,178.481C 105.175,179.249 105.98,180.259 105.98,181.511C 105.98,182.479 105.607,183.259 104.861,183.851C 104.114,184.444 103.28,184.74 102.358,184.74C 101.695,184.74 100.938,184.62 100.085,184.38C 99.825,184.3 99.6125,184.26 99.4475,184.26C 99.265,184.26 99.1225,184.42 99.02,184.74L 98.54,184.74L 98.54,181.14L 99.02,181.14C 99.245,182.093 99.6731,182.811 100.304,183.294C 100.936,183.778 101.644,184.02 102.429,184.02C 102.981,184.02 103.431,183.856 103.779,183.529C 104.126,183.201 104.3,182.808 104.3,182.348C 104.3,181.793 104.108,181.325 103.723,180.945C 103.338,180.565 102.567,180.104 101.411,179.561C 100.254,179.019 99.4875,178.529 99.11,178.091C 98.73,177.661 98.54,177.118 98.54,176.46C 98.54,175.608 98.8481,174.894 99.4644,174.321C 100.081,173.747 100.878,173.46 101.855,173.46C 102.285,173.46 102.806,173.556 103.419,173.749C 103.826,173.876 104.098,173.94 104.233,173.94C 104.36,173.94 104.459,173.911 104.531,173.852C 104.602,173.793 104.685,173.663 104.78,173.46L 105.26,173.46 Z "/>
		<path fill="#000000" fill-opacity="1" stroke-linejoin="round" d="M 110.54,170.1L 110.54,173.7L 113.049,173.7L 113.049,174.42L 110.54,174.42L 110.54,181.5C 110.54,182.208 110.641,182.684 110.842,182.931C 111.043,183.177 111.301,183.3 111.616,183.3C 111.876,183.3 112.128,183.239 112.372,183.118C 112.616,182.997 112.805,182.818 112.94,182.58L 113.42,182.58C 113.145,183.298 112.756,183.837 112.252,184.198C 111.748,184.559 111.23,184.74 110.697,184.74C 110.335,184.74 109.981,184.638 109.634,184.434C 109.288,184.231 109.032,183.939 108.867,183.559C 108.702,183.179 108.62,182.594 108.62,181.804L 108.62,174.42L 106.7,174.42L 106.7,174.079C 107.182,173.911 107.676,173.627 108.179,173.226C 108.683,172.824 109.122,172.336 109.497,171.761C 109.69,171.459 109.957,170.905 110.3,170.1L 110.54,170.1 Z "/>
	</g>
	<path fill="#000000" fill-opacity="1" stroke-width="3" stroke-linejoin="miter" stroke="#000000" stroke-opacity="1" d="M 152.125,60.5L 147.727,52.9611L 143.397,60.5389L 152.125,60.5 Z "/>
	<path fill="none" stroke-width="3" stroke-linejoin="miter" stroke="#000000" stroke-opacity="1" d="M 148,61.75L 148,113.75L 180,113.75"/>
	<rect x="180" y="65" fill="none" stroke-width="2" stroke-linejoin="round" stroke="#000000" stroke-opacity="1" width="128" height="96"/>
	<g>
		<path fill="#000000" fill-opacity="1" stroke-linejoin="round" d="M 227.8,171.307L 227.8,178.027L 230.68,178.027C 231.295,178.027 231.745,177.871 232.03,177.56C 232.315,177.249 232.505,176.684 232.6,175.867L 233.08,175.867L 233.08,180.907L 232.6,180.907C 232.592,180.322 232.518,179.892 232.377,179.617C 232.236,179.342 232.041,179.128 231.792,178.975C 231.543,178.823 231.172,178.747 230.68,178.747L 227.8,178.747L 227.8,183.787C 227.8,184.599 227.847,185.135 227.942,185.395C 228.017,185.593 228.172,185.762 228.407,185.902C 228.73,186.092 229.067,186.187 229.42,186.187L 229.96,186.187L 229.96,186.667L 223.48,186.667L 223.48,186.187L 224.016,186.187C 224.639,186.187 225.091,185.994 225.374,185.609C 225.551,185.357 225.64,184.749 225.64,183.787L 225.64,173.467C 225.64,172.654 225.591,172.118 225.494,171.858C 225.421,171.66 225.27,171.492 225.04,171.352C 224.72,171.162 224.379,171.067 224.016,171.067L 223.48,171.067L 223.48,170.587L 235,170.587L 235.24,174.187L 234.76,174.187C 234.582,173.372 234.376,172.774 234.139,172.392C 233.903,172.011 233.586,171.735 233.187,171.564C 232.788,171.392 232.171,171.307 231.336,171.307L 227.8,171.307 Z "/>
		<path fill="#000000" fill-opacity="1" stroke-linejoin="round" d="M 239.447,169.867C 239.81,169.867 240.119,169.995 240.376,170.251C 240.632,170.507 240.76,170.817 240.76,171.179C 240.76,171.544 240.632,171.857 240.376,172.117C 240.119,172.377 239.81,172.507 239.447,172.507C 239.082,172.507 238.77,172.377 238.51,172.117C 238.25,171.857 238.12,171.544 238.12,171.179C 238.12,170.817 238.248,170.507 238.504,170.251C 238.761,169.995 239.075,169.867 239.447,169.867 Z M 240.52,175.627L 240.52,184.267C 240.52,184.909 240.571,185.337 240.672,185.551C 240.773,185.765 240.922,185.924 241.12,186.029C 241.317,186.134 241.677,186.187 242.2,186.187L 242.2,186.667L 236.92,186.667L 236.92,186.187C 237.455,186.187 237.815,186.138 238,186.04C 238.185,185.943 238.331,185.782 238.439,185.559C 238.546,185.335 238.6,184.904 238.6,184.267L 238.6,179.947C 238.6,178.832 238.567,178.109 238.502,177.779C 238.45,177.539 238.369,177.371 238.261,177.275C 238.152,177.179 238.004,177.13 237.816,177.13C 237.611,177.13 237.364,177.189 237.074,177.307L 236.92,176.827L 240.025,175.627L 240.52,175.627 Z "/>
		<path fill="#000000" fill-opacity="1" stroke-linejoin="round" d="M 247.24,169.867L 247.24,184.267C 247.24,184.909 247.287,185.335 247.382,185.545C 247.477,185.755 247.623,185.915 247.819,186.024C 248.016,186.132 248.382,186.187 248.92,186.187L 248.92,186.667L 243.64,186.667L 243.64,186.187C 244.162,186.187 244.519,186.138 244.711,186.04C 244.902,185.943 245.051,185.782 245.159,185.559C 245.266,185.335 245.32,184.904 245.32,184.267L 245.32,174.187C 245.32,173.032 245.294,172.322 245.243,172.057C 245.192,171.792 245.109,171.609 244.994,171.509C 244.879,171.409 244.734,171.359 244.559,171.359C 244.366,171.359 244.122,171.422 243.827,171.547L 243.64,171.067L 246.73,169.867L 247.24,169.867 Z "/>
		<path fill="#000000" fill-opacity="1" stroke-linejoin="round" d="M 253.48,172.267L 253.48,175.867L 255.989,175.867L 255.989,176.587L 253.48,176.587L 253.48,183.667C 253.48,184.374 253.581,184.851 253.782,185.097C 253.983,185.344 254.241,185.467 254.556,185.467C 254.816,185.467 255.068,185.406 255.312,185.285C 255.556,185.164 255.745,184.984 255.88,184.747L 256.36,184.747C 256.085,185.464 255.696,186.004 255.192,186.365C 254.688,186.726 254.17,186.907 253.637,186.907C 253.275,186.907 252.921,186.805 252.574,186.601C 252.228,186.397 251.972,186.105 251.807,185.725C 251.642,185.345 251.56,184.76 251.56,183.97L 251.56,176.587L 249.64,176.587L 249.64,176.245C 250.122,176.078 250.616,175.794 251.119,175.392C 251.623,174.991 252.062,174.503 252.437,173.928C 252.63,173.625 252.897,173.072 253.24,172.267L 253.48,172.267 Z "/>
		<path fill="#000000" fill-opacity="1" stroke-linejoin="round" d="M 258.76,179.947C 258.752,181.519 259.147,182.752 259.945,183.644C 260.742,184.539 261.679,184.987 262.754,184.987C 263.471,184.987 264.095,184.826 264.625,184.505C 265.155,184.184 265.6,183.544 265.96,182.587L 266.2,182.804C 266.035,183.919 265.556,184.882 264.764,185.692C 263.971,186.502 262.979,186.907 261.786,186.907C 260.491,186.907 259.383,186.41 258.462,185.416C 257.541,184.422 257.08,183.085 257.08,181.405C 257.08,179.588 257.552,178.17 258.497,177.153C 259.442,176.135 260.629,175.627 262.056,175.627C 263.266,175.627 264.259,176.019 265.036,176.802C 265.812,177.586 266.2,178.634 266.2,179.947L 258.76,179.947 Z M 258.76,179.227L 263.8,179.227C 263.76,178.534 263.676,178.047 263.549,177.764C 263.351,177.322 263.056,176.975 262.664,176.724C 262.271,176.472 261.861,176.347 261.434,176.347C 260.776,176.347 260.188,176.6 259.669,177.108C 259.151,177.615 258.847,178.322 258.76,179.227 Z "/>
		<path fill="#000000" fill-opacity="1" stroke-linejoin="round" d="M 270.76,175.627L 270.76,178.289C 271.622,176.514 272.506,175.627 273.411,175.627C 273.824,175.627 274.165,175.771 274.435,176.06C 274.705,176.349 274.84,176.683 274.84,177.063C 274.84,177.4 274.749,177.685 274.568,177.918C 274.387,178.15 274.171,178.267 273.921,178.267C 273.679,178.267 273.389,178.107 273.051,177.787C 272.714,177.467 272.464,177.307 272.301,177.307C 272.161,177.307 272.009,177.39 271.844,177.558C 271.494,177.898 271.132,178.46 270.76,179.245L 270.76,184.267C 270.76,184.832 270.836,185.259 270.989,185.549C 271.091,185.749 271.275,185.905 271.54,186.018C 271.805,186.13 272.185,186.187 272.68,186.187L 272.68,186.667L 267.16,186.667L 267.16,186.187C 267.705,186.187 268.11,186.104 268.375,185.939C 268.567,185.819 268.702,185.627 268.78,185.362C 268.82,185.234 268.84,184.869 268.84,184.267L 268.84,179.947C 268.84,178.744 268.816,178.028 268.769,177.798C 268.721,177.568 268.634,177.399 268.506,177.292C 268.379,177.184 268.221,177.13 268.034,177.13C 267.809,177.13 267.554,177.189 267.269,177.307L 267.16,176.827L 270.287,175.627L 270.76,175.627 Z "/>
	</g>
	<path fill="none" stroke-linejoin="round" stroke="#000000" stroke-opacity="1" d="M 180,65.6666C 183.902,65.6666 191.68,68.9634 195.333,70.3333C 203.817,73.5146 206.848,78.7005 213.667,84.6666C 215.391,86.175 216.825,87.6928 218.333,89.4167C 221.358,92.8735 224.103,96.6514 226.333,100.667C 227.985,103.64 230.397,106.336 232.458,109.042C 234.458,111.667 236.333,114.286 238.667,116.667C 255.333,133.667 268.119,147.211 288,154.667C 292.796,156.465 303.031,159.758 308,161"/>
	<path fill="#000000" fill-opacity="1" stroke-linejoin="round" stroke="#000000" stroke-opacity="1" d="M 308,113.25L 322.312,121.513L 322.312,104.987L 308,113.25 Z "/>
	<line fill="none" stroke-width="3" stroke-linejoin="round" stroke="#000000" stroke-opacity="1" x1="322.458" y1="113.75" x2="340" y2="113.75"/>
	<rect x="340" y="85.75" fill="none" stroke-width="2" stroke-linejoin="round" stroke="#000000" stroke-opacity="1" width="64" height="52"/>
	<g>
		<path fill="#000000" fill-opacity="1" stroke-linejoin="round" d="M 367.003,101.31L 353.048,121.79L 362.023,121.79C 363.4,121.79 364.438,121.485 365.138,120.875C 365.838,120.265 366.46,119.027 367.003,117.16L 367.518,117.26L 366.533,122.75L 349.278,122.75L 349.278,122.315L 362.933,102.27L 356.133,102.27C 355.007,102.27 354.19,102.392 353.683,102.635C 353.177,102.878 352.79,103.233 352.523,103.698C 352.257,104.163 352.013,105.03 351.793,106.3L 351.198,106.3L 351.838,101.31L 367.003,101.31 Z "/>
	</g>
	<g>
		<path fill="#000000" fill-opacity="1" stroke-linejoin="round" d="M 379.2,99L 378.72,100.68L 372.72,100.68L 373.196,99L 379.2,99 Z "/>
		<path fill="#000000" fill-opacity="1" stroke-linejoin="round" d="M 391.001,105L 379.624,105L 379.789,104.52C 380.414,104.505 380.831,104.455 381.041,104.37C 381.369,104.233 381.611,104.053 381.769,103.83C 382.011,103.475 382.269,102.838 382.541,101.918L 385.286,92.1375C 385.521,91.3325 385.639,90.74 385.639,90.36C 385.639,90.06 385.531,89.8269 385.316,89.6606C 385.101,89.4944 384.698,89.4113 384.105,89.4113C 383.973,89.4113 383.868,89.4075 383.79,89.4L 383.929,88.92L 390.296,88.92L 390.202,89.4C 389.475,89.4 388.959,89.4763 388.656,89.6287C 388.352,89.7813 388.098,90.03 387.892,90.375C 387.752,90.6025 387.522,91.3113 387.202,92.5012L 384.473,102.101C 384.262,102.809 384.158,103.3 384.158,103.575C 384.158,103.76 384.262,103.938 384.473,104.108C 384.6,104.222 384.887,104.28 385.335,104.28L 386.801,104.28C 387.866,104.28 388.712,104.141 389.34,103.864C 389.802,103.656 390.239,103.344 390.649,102.926C 390.869,102.696 391.257,102.121 391.815,101.201L 392.122,100.68L 392.557,100.68L 391.001,105 Z "/>
	</g>
	<g>
		<path fill="#000000" fill-opacity="1" stroke-linejoin="round" d="M 346.938,186.5L 346.938,186.02L 347.505,186.02C 348.14,186.02 348.59,185.804 348.855,185.371C 349.017,185.111 349.098,184.528 349.098,183.62L 349.098,173.3C 349.098,172.3 348.995,171.674 348.787,171.421C 348.5,171.074 348.072,170.9 347.505,170.9L 346.938,170.9L 346.938,170.42L 353.34,170.42C 355.69,170.42 357.477,170.693 358.702,171.238C 359.927,171.783 360.913,172.692 361.659,173.966C 362.405,175.239 362.778,176.71 362.778,178.378C 362.778,180.615 362.113,182.485 360.783,183.988C 359.291,185.663 357.018,186.5 353.966,186.5L 346.938,186.5 Z M 351.258,185.443C 352.258,185.668 353.098,185.78 353.778,185.78C 355.606,185.78 357.123,185.123 358.329,183.808C 359.535,182.493 360.138,180.71 360.138,178.46C 360.138,176.193 359.535,174.406 358.329,173.099C 357.123,171.793 355.573,171.14 353.681,171.14C 352.973,171.14 352.166,171.258 351.258,171.493L 351.258,185.443 Z "/>
		<path fill="#000000" fill-opacity="1" stroke-linejoin="round" d="M 366.138,179.78C 366.131,181.353 366.526,182.585 367.323,183.478C 368.121,184.373 369.057,184.82 370.132,184.82C 370.85,184.82 371.473,184.659 372.003,184.338C 372.533,184.017 372.978,183.378 373.338,182.42L 373.578,182.638C 373.413,183.753 372.935,184.715 372.142,185.525C 371.35,186.335 370.357,186.74 369.165,186.74C 367.87,186.74 366.761,186.243 365.84,185.249C 364.919,184.256 364.458,182.919 364.458,181.239C 364.458,179.421 364.931,178.004 365.876,176.986C 366.821,175.969 368.007,175.46 369.435,175.46C 370.645,175.46 371.638,175.852 372.414,176.636C 373.19,177.419 373.578,178.468 373.578,179.78L 366.138,179.78 Z M 366.138,179.06L 371.178,179.06C 371.138,178.368 371.055,177.88 370.927,177.598C 370.73,177.155 370.435,176.808 370.042,176.557C 369.65,176.306 369.24,176.18 368.812,176.18C 368.155,176.18 367.566,176.434 367.048,176.941C 366.529,177.449 366.226,178.155 366.138,179.06 Z "/>
		<path fill="#000000" fill-opacity="1" stroke-linejoin="round" d="M 378.618,169.7L 378.618,184.1C 378.618,184.743 378.666,185.169 378.761,185.379C 378.856,185.589 379.001,185.748 379.198,185.857C 379.394,185.966 379.761,186.02 380.298,186.02L 380.298,186.5L 375.018,186.5L 375.018,186.02C 375.541,186.02 375.898,185.971 376.089,185.874C 376.28,185.776 376.43,185.616 376.537,185.392C 376.645,185.168 376.698,184.738 376.698,184.1L 376.698,174.02C 376.698,172.865 376.673,172.155 376.621,171.89C 376.57,171.625 376.487,171.443 376.372,171.343C 376.257,171.243 376.112,171.193 375.937,171.193C 375.745,171.193 375.501,171.255 375.206,171.38L 375.018,170.9L 378.108,169.7L 378.618,169.7 Z "/>
		<path fill="#000000" fill-opacity="1" stroke-linejoin="round" d="M 387.978,184.888C 386.828,185.78 386.106,186.295 385.811,186.433C 385.371,186.638 384.902,186.74 384.405,186.74C 383.63,186.74 382.991,186.483 382.49,185.968C 381.989,185.453 381.738,184.775 381.738,183.935C 381.738,183.405 381.861,182.945 382.106,182.555C 382.441,182.018 383.022,181.511 383.85,181.036C 384.677,180.561 386.053,179.983 387.978,179.3L 387.978,178.891C 387.978,177.856 387.796,177.146 387.433,176.759C 387.069,176.373 386.54,176.18 385.845,176.18C 385.317,176.18 384.898,176.313 384.588,176.578C 384.271,176.845 384.112,177.15 384.112,177.493L 384.138,178.175C 384.138,178.535 384.05,178.813 383.872,179.008C 383.695,179.203 383.461,179.3 383.171,179.3C 382.891,179.3 382.662,179.198 382.485,178.994C 382.307,178.791 382.218,178.513 382.218,178.16C 382.218,177.488 382.57,176.869 383.274,176.306C 383.978,175.742 384.966,175.46 386.238,175.46C 387.213,175.46 388.013,175.621 388.638,175.944C 389.111,176.186 389.458,176.568 389.681,177.088C 389.826,177.425 389.898,178.116 389.898,179.161L 389.898,182.825C 389.898,183.855 389.919,184.486 389.96,184.717C 390.001,184.948 390.069,185.103 390.163,185.182C 390.256,185.261 390.365,185.3 390.487,185.3C 390.617,185.3 390.731,185.279 390.828,185.236C 390.998,185.159 391.328,184.94 391.818,184.58L 391.818,185.083C 390.928,186.188 390.077,186.74 389.265,186.74C 388.877,186.74 388.568,186.6 388.336,186.32C 388.105,186.04 387.986,185.563 387.978,184.888 Z M 387.978,184.123L 387.978,180.02C 386.706,180.49 385.885,180.824 385.515,181.021C 384.85,181.366 384.374,181.727 384.088,182.103C 383.801,182.479 383.658,182.89 383.658,183.335C 383.658,183.9 383.84,184.369 384.202,184.741C 384.565,185.114 384.981,185.3 385.451,185.3C 386.091,185.3 386.933,184.908 387.978,184.123 Z "/>
		<path fill="#000000" fill-opacity="1" stroke-linejoin="round" d="M 391.537,175.7L 396.573,175.7L 396.573,176.18L 396.326,176.18C 395.976,176.18 395.713,176.253 395.536,176.398C 395.36,176.543 395.272,176.723 395.272,176.938C 395.272,177.225 395.401,177.625 395.658,178.138L 398.167,183.444L 400.458,177.635C 400.591,177.333 400.657,177.035 400.657,176.743C 400.657,176.61 400.63,176.511 400.575,176.446C 400.512,176.364 400.415,176.299 400.282,176.251C 400.15,176.204 399.916,176.18 399.581,176.18L 399.581,175.7L 402.776,175.7L 402.776,176.18C 402.486,176.21 402.263,176.269 402.106,176.358C 401.95,176.447 401.778,176.613 401.591,176.855C 401.521,176.958 401.388,177.241 401.193,177.706L 397.095,188.101C 396.687,189.234 396.153,190.09 395.493,190.67C 394.833,191.25 394.197,191.54 393.585,191.54C 393.14,191.54 392.774,191.394 392.488,191.101C 392.201,190.809 392.058,190.474 392.058,190.096C 392.058,189.736 392.168,189.447 392.386,189.228C 392.605,189.009 392.906,188.9 393.288,188.9C 393.551,188.9 393.908,188.995 394.361,189.185C 394.678,189.315 394.876,189.38 394.953,189.38C 395.183,189.38 395.435,189.258 395.707,189.014C 395.98,188.771 396.255,188.298 396.532,187.595L 397.215,185.863L 393.446,177.886C 393.328,177.654 393.141,177.366 392.883,177.024C 392.688,176.761 392.528,176.585 392.403,176.495C 392.223,176.375 391.935,176.27 391.537,176.18L 391.537,175.7 Z "/>
	</g>
	<line fill="none" stroke-width="3" stroke-linejoin="round" stroke="#000000" stroke-opacity="1" x1="162.958" y1="33" x2="454.958" y2="33"/>
	<line fill="none" stroke-width="3" stroke-linejoin="round" stroke="#000000" stroke-opacity="1" x1="372" y1="33" x2="372" y2="75.25"/>
	<path fill="#000000" fill-opacity="1" stroke-width="3" stroke-linejoin="round" d="M 468,33L 452.938,24.3037L 452.938,41.6963L 468,33 Z "/>
	<path fill="#000000" fill-opacity="1" stroke-width="3" stroke-linejoin="round" d="M 372,85.75L 379.794,72.25L 364.206,72.25L 372,85.75 Z "/>
	<rect x="468" y="17.25" fill="none" stroke-width="2" stroke-linejoin="round" stroke="#000000" stroke-opacity="1" width="16.9583" height="32"/>
	<path fill="none" stroke-width="2" stroke-linejoin="round" stroke="#000000" stroke-opacity="1" d="M 484.958,18.25L 500,0.999992L 500,65L 485.958,49.25"/>
	<g>
		<path fill="#000000" fill-opacity="1" stroke-linejoin="round" d="M 461.248,71.68C 463.283,71.68 465.047,72.4607 466.54,74.0219C 468.032,75.5832 468.778,77.5313 468.778,79.8663C 468.778,82.2713 468.026,84.2682 466.523,85.8569C 465.019,87.4456 463.2,88.24 461.065,88.24C 458.905,88.24 457.09,87.4656 455.621,85.9169C 454.153,84.3681 453.418,82.3625 453.418,79.9C 453.418,77.3875 454.267,75.3363 455.965,73.7463C 457.437,72.3688 459.198,71.68 461.248,71.68 Z M 461.027,72.4C 459.622,72.4 458.495,72.9338 457.645,74.0012C 456.587,75.3313 456.058,77.2775 456.058,79.84C 456.058,82.4675 456.607,84.49 457.705,85.9075C 458.547,86.9825 459.66,87.52 461.042,87.52C 462.517,87.52 463.735,86.9306 464.696,85.7519C 465.658,84.5731 466.138,82.7138 466.138,80.1738C 466.138,77.4213 465.61,75.3675 464.552,74.0125C 463.702,72.9375 462.527,72.4 461.027,72.4 Z "/>
		<path fill="#000000" fill-opacity="1" stroke-linejoin="round" d="M 480.058,77.2L 480.058,83.92C 480.058,85.08 480.086,85.79 480.141,86.05C 480.196,86.31 480.283,86.4931 480.403,86.5994C 480.523,86.7057 480.663,86.7588 480.823,86.7588C 481.048,86.7588 481.302,86.6925 481.585,86.56L 481.738,87.04L 478.645,88.24L 478.138,88.24L 478.138,85.9713C 477.203,86.9688 476.49,87.5963 475.999,87.8538C 475.508,88.1113 474.988,88.24 474.441,88.24C 473.831,88.24 473.302,88.0681 472.855,87.7244C 472.407,87.3806 472.096,86.9381 471.921,86.3969C 471.746,85.8556 471.658,85.09 471.658,84.1L 471.658,79.36C 471.658,78.8425 471.608,78.485 471.506,78.2875C 471.405,78.09 471.255,77.9375 471.056,77.83C 470.858,77.7225 470.498,77.6725 469.978,77.68L 469.978,77.2L 473.578,77.2L 473.578,84.3663C 473.578,85.3663 473.757,86.0219 474.115,86.3332C 474.472,86.6444 474.903,86.8 475.408,86.8C 475.753,86.8 476.144,86.695 476.58,86.485C 477.016,86.275 477.536,85.8738 478.138,85.2813L 478.138,79.36C 478.138,78.7125 478.03,78.275 477.812,78.0475C 477.595,77.82 477.143,77.6975 476.458,77.68L 476.458,77.2L 480.058,77.2 Z "/>
		<path fill="#000000" fill-opacity="1" stroke-linejoin="round" d="M 485.578,73.6L 485.578,77.2L 488.087,77.2L 488.087,77.92L 485.578,77.92L 485.578,85C 485.578,85.7075 485.679,86.1844 485.88,86.4306C 486.081,86.6769 486.34,86.8 486.655,86.8C 486.915,86.8 487.166,86.7394 487.41,86.6181C 487.654,86.4969 487.843,86.3175 487.978,86.08L 488.458,86.08C 488.183,86.7975 487.794,87.3369 487.29,87.6981C 486.786,88.0594 486.268,88.24 485.736,88.24C 485.373,88.24 485.019,88.1381 484.673,87.9344C 484.326,87.7306 484.071,87.4387 483.906,87.0588C 483.741,86.6788 483.658,86.0938 483.658,85.3038L 483.658,77.92L 481.738,77.92L 481.738,77.5788C 482.221,77.4113 482.714,77.1269 483.218,76.7256C 483.721,76.3244 484.161,75.8363 484.536,75.2613C 484.728,74.9588 484.996,74.405 485.338,73.6L 485.578,73.6 Z "/>
		<path fill="#000000" fill-opacity="1" stroke-linejoin="round" d="M 488.698,78.16L 491.871,76.96L 492.298,76.96L 492.298,79.4875C 492.851,78.5525 493.406,77.8975 493.965,77.5225C 494.524,77.1475 495.111,76.96 495.726,76.96C 496.803,76.96 497.7,77.3787 498.415,78.2163C 499.297,79.2363 499.738,80.5675 499.738,82.21C 499.738,84.045 499.208,85.5637 498.148,86.7663C 497.273,87.7488 496.173,88.24 494.848,88.24C 494.271,88.24 493.772,88.1563 493.352,87.9888C 493.04,87.8713 492.688,87.6338 492.298,87.2763L 492.298,90.64C 492.298,91.3275 492.34,91.7644 492.422,91.9506C 492.505,92.1369 492.649,92.285 492.855,92.395C 493.061,92.505 493.436,92.56 493.978,92.56L 493.978,93.04L 488.458,93.04L 488.458,92.56L 488.762,92.56C 489.205,92.5675 489.582,92.4938 489.895,92.3388C 490.047,92.2588 490.166,92.1325 490.251,91.96C 490.336,91.7875 490.378,91.3475 490.378,90.64L 490.378,80.32C 490.378,79.6425 490.349,79.2119 490.29,79.0281C 490.231,78.8444 490.139,78.7063 490.013,78.6138C 489.886,78.5213 489.713,78.475 489.493,78.475C 489.321,78.475 489.1,78.53 488.83,78.64L 488.698,78.16 Z M 492.298,80.17L 492.298,84.1375C 492.298,84.995 492.335,85.5588 492.407,85.8288C 492.52,86.2763 492.795,86.67 493.232,87.01C 493.67,87.35 494.222,87.52 494.89,87.52C 495.692,87.52 496.343,87.2188 496.843,86.6163C 497.493,85.8288 497.818,84.72 497.818,83.29C 497.818,81.665 497.448,80.4163 496.708,79.5438C 496.196,78.9412 495.586,78.64 494.878,78.64C 494.493,78.64 494.111,78.7325 493.731,78.9175C 493.443,79.0575 492.966,79.475 492.298,80.17 Z "/>
		<path fill="#000000" fill-opacity="1" stroke-linejoin="round" d="M 510.778,77.2L 510.778,83.92C 510.778,85.08 510.806,85.79 510.861,86.05C 510.916,86.31 511.003,86.4931 511.123,86.5994C 511.243,86.7057 511.383,86.7588 511.543,86.7588C 511.768,86.7588 512.022,86.6925 512.305,86.56L 512.458,87.04L 509.365,88.24L 508.858,88.24L 508.858,85.9713C 507.923,86.9688 507.21,87.5963 506.719,87.8538C 506.228,88.1113 505.708,88.24 505.161,88.24C 504.551,88.24 504.022,88.0681 503.575,87.7244C 503.127,87.3806 502.816,86.9381 502.641,86.3969C 502.466,85.8556 502.378,85.09 502.378,84.1L 502.378,79.36C 502.378,78.8425 502.328,78.485 502.226,78.2875C 502.125,78.09 501.975,77.9375 501.776,77.83C 501.578,77.7225 501.218,77.6725 500.698,77.68L 500.698,77.2L 504.298,77.2L 504.298,84.3663C 504.298,85.3663 504.477,86.0219 504.835,86.3332C 505.192,86.6444 505.623,86.8 506.128,86.8C 506.473,86.8 506.864,86.695 507.3,86.485C 507.736,86.275 508.256,85.8738 508.858,85.2813L 508.858,79.36C 508.858,78.7125 508.75,78.275 508.532,78.0475C 508.315,77.82 507.863,77.6975 507.178,77.68L 507.178,77.2L 510.778,77.2 Z "/>
		<path fill="#000000" fill-opacity="1" stroke-linejoin="round" d="M 516.298,73.6L 516.298,77.2L 518.807,77.2L 518.807,77.92L 516.298,77.92L 516.298,85C 516.298,85.7075 516.399,86.1844 516.6,86.4306C 516.801,86.6769 517.06,86.8 517.375,86.8C 517.635,86.8 517.886,86.7394 518.13,86.6181C 518.374,86.4969 518.563,86.3175 518.698,86.08L 519.178,86.08C 518.903,86.7975 518.514,87.3369 518.01,87.6981C 517.506,88.0594 516.988,88.24 516.456,88.24C 516.093,88.24 515.739,88.1381 515.393,87.9344C 515.046,87.7306 514.791,87.4387 514.626,87.0588C 514.461,86.6788 514.378,86.0938 514.378,85.3038L 514.378,77.92L 512.458,77.92L 512.458,77.5788C 512.941,77.4113 513.434,77.1269 513.938,76.7256C 514.441,76.3244 514.881,75.8363 515.256,75.2613C 515.448,74.9588 515.716,74.405 516.058,73.6L 516.298,73.6 Z "/>
	</g>
	<line fill="none" stroke-linejoin="round" stroke="#000000" stroke-opacity="0.501961" x1="2.33333" y1="65" x2="2.33333" y2="161"/>
	<line fill="none" stroke-linejoin="round" stroke="#000000" stroke-opacity="0.501961" x1="3.33333" y1="75.8334" x2="3.33333" y2="142.208"/>
	<line fill="none" stroke-linejoin="round" stroke="#000000" stroke-opacity="0.501961" x1="5.31771" y1="78.4" x2="5.31771" y2="144.775"/>
	<line fill="none" stroke-linejoin="round" stroke="#000000" stroke-opacity="0.501961" x1="4.33333" y1="65" x2="4.33333" y2="161"/>
	<line fill="none" stroke-linejoin="round" stroke="#000000" stroke-opacity="0.501961" x1="6.31771" y1="69.7083" x2="6.31771" y2="136.083"/>
	<line fill="none" stroke-linejoin="round" stroke="#000000" stroke-opacity="0.501961" x1="7.32292" y1="80.2865" x2="7.32292" y2="146.661"/>
	<line fill="none" stroke-linejoin="round" stroke="#000000" stroke-opacity="0.501961" x1="8.31771" y1="68.0052" x2="8.33333" y2="160"/>
	<line fill="none" stroke-linejoin="round" stroke="#000000" stroke-opacity="0.501961" x1="9.33333" y1="65" x2="9.33333" y2="161"/>
	<line fill="none" stroke-linejoin="round" stroke="#000000" stroke-opacity="0.501961" x1="10.3333" y1="75.8334" x2="10.3333" y2="142.208"/>
	<line fill="none" stroke-linejoin="round" stroke="#000000" stroke-opacity="0.501961" x1="12.3177" y1="78.4" x2="12.3177" y2="144.775"/>
	<line fill="none" stroke-linejoin="round" stroke="#000000" stroke-opacity="0.501961" x1="11.3333" y1="65" x2="11.3333" y2="161"/>
	<line fill="none" stroke-linejoin="round" stroke="#000000" stroke-opacity="0.501961" x1="13.3177" y1="69.7083" x2="13.3177" y2="136.083"/>
	<line fill="none" stroke-linejoin="round" stroke="#000000" stroke-opacity="0.501961" x1="14.3229" y1="80.2865" x2="14.3229" y2="146.661"/>
	<line fill="none" stroke-linejoin="round" stroke="#000000" stroke-opacity="0.501961" x1="15.3177" y1="68.0052" x2="15.3333" y2="160"/>
	<line fill="none" stroke-linejoin="round" stroke="#000000" stroke-opacity="0.501961" x1="16.3333" y1="65" x2="16.3333" y2="161"/>
	<line fill="none" stroke-linejoin="round" stroke="#000000" stroke-opacity="0.501961" x1="17.3333" y1="75.8334" x2="17.3333" y2="142.208"/>
	<line fill="none" stroke-linejoin="round" stroke="#000000" stroke-opacity="0.501961" x1="19.3177" y1="78.4" x2="19.3177" y2="144.775"/>
	<line fill="none" stroke-linejoin="round" stroke="#000000" stroke-opacity="0.501961" x1="18.3333" y1="65" x2="18.3333" y2="161"/>
	<line fill="none" stroke-linejoin="round" stroke="#000000" stroke-opacity="0.501961" x1="20.3177" y1="69.7083" x2="20.3177" y2="136.083"/>
	<line fill="none" stroke-linejoin="round" stroke="#000000" stroke-opacity="0.501961" x1="21.3229" y1="80.2865" x2="21.3229" y2="146.661"/>
	<line fill="none" stroke-linejoin="round" stroke="#000000" stroke-opacity="0.501961" x1="22.3177" y1="68.0052" x2="22.3333" y2="160"/>
	<line fill="none" stroke-linejoin="round" stroke="#000000" stroke-opacity="1" x1="23.3333" y1="83.3542" x2="23.3333" y2="139.083"/>
	<line fill="none" stroke-linejoin="round" stroke="#000000" stroke-opacity="1" x1="22.288" y1="89.6431" x2="22.288" y2="128.175"/>
	<line fill="none" stroke-linejoin="round" stroke="#000000" stroke-opacity="1" x1="20.2137" y1="91.133" x2="20.2137" y2="129.665"/>
	<line fill="none" stroke-linejoin="round" stroke="#000000" stroke-opacity="1" x1="21.2427" y1="83.3542" x2="21.2427" y2="139.083"/>
	<line fill="none" stroke-linejoin="round" stroke="#000000" stroke-opacity="1" x1="19.1684" y1="86.0874" x2="19.1684" y2="124.619"/>
	<line fill="none" stroke-linejoin="round" stroke="#000000" stroke-opacity="1" x1="18.1177" y1="92.2282" x2="18.1177" y2="130.76"/>
	<line fill="none" stroke-linejoin="round" stroke="#000000" stroke-opacity="1" x1="17.0778" y1="85.0987" x2="17.0615" y2="138.503"/>
	<line fill="none" stroke-linejoin="round" stroke="#000000" stroke-opacity="1" x1="16.0161" y1="83.3542" x2="16.0161" y2="139.083"/>
	<line fill="none" stroke-linejoin="round" stroke="#000000" stroke-opacity="1" x1="14.9708" y1="89.6431" x2="14.9708" y2="128.175"/>
	<line fill="none" stroke-linejoin="round" stroke="#000000" stroke-opacity="1" x1="12.8965" y1="91.133" x2="12.8965" y2="129.665"/>
	<line fill="none" stroke-linejoin="round" stroke="#000000" stroke-opacity="1" x1="13.9255" y1="83.3542" x2="13.9255" y2="139.083"/>
	<line fill="none" stroke-linejoin="round" stroke="#000000" stroke-opacity="1" x1="11.8512" y1="86.0874" x2="11.8512" y2="124.619"/>
	<line fill="none" stroke-linejoin="round" stroke="#000000" stroke-opacity="1" x1="10.8005" y1="92.2282" x2="10.8005" y2="130.76"/>
	<line fill="none" stroke-linejoin="round" stroke="#000000" stroke-opacity="1" x1="9.7606" y1="85.0987" x2="9.74426" y2="138.503"/>
	<line fill="none" stroke-linejoin="round" stroke="#000000" stroke-opacity="1" x1="8.69896" y1="83.3542" x2="8.69896" y2="139.083"/>
	<line fill="none" stroke-linejoin="round" stroke="#000000" stroke-opacity="1" x1="7.65365" y1="89.6431" x2="7.65365" y2="128.175"/>
	<line fill="none" stroke-linejoin="round" stroke="#000000" stroke-opacity="1" x1="5.57935" y1="91.133" x2="5.57935" y2="129.665"/>
	<line fill="none" stroke-linejoin="round" stroke="#000000" stroke-opacity="1" x1="6.60833" y1="83.3542" x2="6.60833" y2="139.083"/>
	<line fill="none" stroke-linejoin="round" stroke="#000000" stroke-opacity="1" x1="4.53404" y1="86.0874" x2="4.53404" y2="124.619"/>
	<line fill="none" stroke-linejoin="round" stroke="#000000" stroke-opacity="1" x1="3.48328" y1="92.2282" x2="3.48328" y2="130.76"/>
	<line fill="none" stroke-linejoin="round" stroke="#000000" stroke-opacity="1" x1="2.44341" y1="85.0987" x2="2.42708" y2="138.503"/>
	<rect x="1" y="65" fill="none" stroke-width="2" stroke-linejoin="round" stroke="#000000" stroke-opacity="1" width="115" height="96"/>
</svg>
